<svg width="876" height="218" viewBox="0 0 876 218" fill="none" xmlns="http://www.w3.org/2000/svg">
<path d="M-7.73668e-05 85.68C-7.73668e-05 68.88 3.27992 54 9.83992 41.04C16.3999 28.08 25.7599 18.08 37.9199 11.04C50.0799 3.84 64.1599 0.240001 80.1599 0.240001C98.7199 0.240001 114.24 5.28 126.72 15.36C139.36 25.44 147.28 39.2 150.48 56.64H129.6C126.56 44.96 120.56 35.84 111.6 29.28C102.8 22.72 91.9999 19.44 79.1999 19.44C67.6799 19.44 57.5199 22.24 48.7199 27.84C39.9199 33.44 33.1199 41.28 28.3199 51.36C23.6799 61.28 21.3599 72.72 21.3599 85.68C21.3599 98.48 23.6799 109.92 28.3199 120C33.1199 130.08 39.9199 137.92 48.7199 143.52C57.5199 149.12 67.6799 151.92 79.1999 151.92C92.1599 151.92 102.96 148.72 111.6 142.32C120.24 135.76 126.16 126.56 129.36 114.72H150.24C147.04 132.16 139.2 145.92 126.72 156C114.4 166.08 98.8799 171.12 80.1599 171.12C64.1599 171.12 50.0799 167.6 37.9199 160.56C25.7599 153.36 16.3999 143.36 9.83992 130.56C3.27992 117.6 -7.73668e-05 102.64 -7.73668e-05 85.68ZM235.911 47.28V66.48H226.071C214.391 66.48 205.991 70.4 200.871 78.24C195.911 86.08 193.431 95.76 193.431 107.28V169.68H173.751V47.28H190.791L193.431 65.76C196.951 60.16 201.511 55.68 207.111 52.32C212.711 48.96 220.471 47.28 230.391 47.28H235.911ZM242.556 108.48C242.556 96 244.956 85.04 249.756 75.6C254.716 66.16 261.596 58.88 270.396 53.76C279.196 48.48 289.276 45.84 300.636 45.84C311.836 45.84 321.756 48.16 330.396 52.8C339.036 57.44 345.836 64.16 350.796 72.96C355.756 81.76 358.396 92.08 358.716 103.92C358.716 105.68 358.556 108.48 358.236 112.32H263.196V114C263.516 126 267.196 135.6 274.236 142.8C281.276 150 290.476 153.6 301.836 153.6C310.636 153.6 318.076 151.44 324.156 147.12C330.396 142.64 334.556 136.48 336.636 128.64H356.556C354.156 141.12 348.156 151.36 338.556 159.36C328.956 167.2 317.196 171.12 303.276 171.12C291.116 171.12 280.476 168.56 271.356 163.44C262.236 158.16 255.116 150.8 249.996 141.36C245.036 131.76 242.556 120.8 242.556 108.48ZM338.316 96C337.356 85.6 333.436 77.52 326.556 71.76C319.836 66 311.276 63.12 300.876 63.12C291.596 63.12 283.436 66.16 276.396 72.24C269.356 78.32 265.356 86.24 264.396 96H338.316ZM497.332 1.68V169.68H480.292L477.652 150C467.412 164.08 453.412 171.12 435.652 171.12C424.292 171.12 414.132 168.64 405.172 163.68C396.372 158.72 389.412 151.52 384.292 142.08C379.332 132.64 376.852 121.44 376.852 108.48C376.852 96.16 379.332 85.28 384.292 75.84C389.412 66.4 396.452 59.04 405.412 53.76C414.372 48.48 424.452 45.84 435.652 45.84C445.572 45.84 454.052 47.68 461.092 51.36C468.132 54.88 473.652 59.76 477.652 66V1.68H497.332ZM437.572 153.6C445.412 153.6 452.372 151.76 458.452 148.08C464.692 144.24 469.492 138.96 472.852 132.24C476.212 125.36 477.892 117.6 477.892 108.96C477.892 100.16 476.212 92.32 472.852 85.44C469.492 78.4 464.692 72.96 458.452 69.12C452.372 65.28 445.412 63.36 437.572 63.36C425.412 63.36 415.572 67.6 408.052 76.08C400.692 84.4 397.012 95.2 397.012 108.48C397.012 121.76 400.692 132.64 408.052 141.12C415.572 149.44 425.412 153.6 437.572 153.6ZM533.981 3.8147e-06C537.661 3.8147e-06 540.701 1.2 543.101 3.6C545.501 6 546.701 9.04 546.701 12.72C546.701 16.4 545.501 19.44 543.101 21.84C540.701 24.24 537.661 25.44 533.981 25.44C530.301 25.44 527.261 24.24 524.861 21.84C522.461 19.44 521.261 16.4 521.261 12.72C521.261 9.04 522.461 6 524.861 3.6C527.261 1.2 530.301 3.8147e-06 533.981 3.8147e-06ZM524.141 47.28H543.821V169.68H524.141V47.28ZM578.942 65.28H556.862V47.28H578.942V12.96H598.622V47.28H629.582V65.28H598.622V137.52C598.622 142.64 599.582 146.32 601.502 148.56C603.582 150.64 607.102 151.68 612.062 151.68H633.422V169.68H610.862C599.342 169.68 591.102 167.12 586.142 162C581.342 156.88 578.942 148.8 578.942 137.76V65.28ZM657.262 3.8147e-06C660.942 3.8147e-06 663.982 1.2 666.382 3.6C668.782 6 669.982 9.04 669.982 12.72C669.982 16.4 668.782 19.44 666.382 21.84C663.982 24.24 660.942 25.44 657.262 25.44C653.582 25.44 650.542 24.24 648.142 21.84C645.742 19.44 644.542 16.4 644.542 12.72C644.542 9.04 645.742 6 648.142 3.6C650.542 1.2 653.582 3.8147e-06 657.262 3.8147e-06ZM647.422 47.28H667.102V169.68H647.422V47.28ZM702.223 47.28V33.6C702.223 22.72 704.703 14.72 709.663 9.59999C714.783 4.32 722.943 1.68 734.143 1.68H756.703V19.68H735.343C730.543 19.68 727.103 20.72 725.023 22.8C722.943 24.88 721.903 28.32 721.903 33.12V47.28H756.463V65.28H721.903V169.68H702.223V65.28H680.143V47.28H702.223ZM780.047 47.28L817.727 147.12L854.207 47.28H875.087L818.687 190.32C815.807 197.68 813.247 203.2 811.007 206.88C808.767 210.56 805.967 213.28 802.607 215.04C799.247 216.8 794.767 217.68 789.167 217.68H765.647V199.68H783.167C787.007 199.68 789.887 199.28 791.807 198.48C793.727 197.68 795.247 196.32 796.367 194.4C797.647 192.64 799.167 189.6 800.927 185.28L807.167 170.64L759.167 47.28H780.047Z" fill="white"/>
</svg>
