<svg width="1032" height="214" viewBox="0 0 1032 214" fill="none" xmlns="http://www.w3.org/2000/svg">
<path d="M65.4691 170.735C45.515 170.799 29.6874 165.324 17.9863 154.311C6.28458 143.143 0.40027 127.199 0.33331 106.477L0.208318 67.7973C0.141359 47.0757 5.92275 31.1704 17.5525 20.0812C29.1818 8.83849 44.9734 3.18491 64.9275 3.12043C84.7281 3.05645 100.018 8.4561 110.798 19.3194C121.731 30.0287 127.228 44.8231 127.289 63.7027L127.293 65.0842L97.3619 65.1809L97.3544 62.8785C97.3237 53.3619 94.6123 45.5425 89.2202 39.4201C83.9816 33.2973 75.9133 30.2535 65.0153 30.2887C54.2708 30.3234 45.8393 33.6508 39.721 40.2708C33.6026 46.8908 30.5617 55.8801 30.5984 67.2386L30.7264 106.84C30.7626 118.045 33.8615 127.014 40.023 133.748C46.1841 140.328 54.6368 143.601 65.3813 143.566C76.2793 143.531 84.3278 140.435 89.5267 134.279C94.8786 127.968 97.5395 120.131 97.5092 110.768L97.4958 106.624L127.427 106.527L127.437 109.751C127.498 128.63 122.097 143.537 111.235 154.47C100.525 165.249 85.2697 170.671 65.4691 170.735ZM162.517 167.198L162.148 52.999L190.698 52.9067L190.739 65.8001L194.884 65.7867C196.557 61.1765 199.309 57.7907 203.14 55.6294C207.124 53.4676 211.725 52.3783 216.944 52.3614L230.758 52.3168L230.841 78.1036L216.566 78.1497C209.199 78.1735 203.142 80.1885 198.397 84.1947C193.651 88.0474 191.291 94.0413 191.318 102.176L191.527 167.104L162.517 167.198ZM311.01 169.941C299.652 169.978 289.59 167.631 280.826 162.901C272.214 158.017 265.439 151.209 260.499 142.475C255.712 133.588 253.299 123.158 253.26 111.186L253.251 108.423C253.212 96.4506 255.558 86.0822 260.288 77.3177C265.018 68.3997 271.673 61.5477 280.253 56.7617C288.832 51.8221 298.802 49.334 310.16 49.2973C321.365 49.2611 331.12 51.7622 339.425 56.8007C347.729 61.6857 354.199 68.5721 358.832 77.4598C363.465 86.194 365.8 96.3938 365.838 108.059L365.87 117.96L282.754 118.228C283.086 126.055 286.023 132.416 291.565 137.31C297.106 142.204 303.868 144.638 311.85 144.612C319.985 144.586 325.965 142.801 329.791 139.258C333.617 135.716 336.521 131.792 338.502 127.488L362.257 139.844C360.121 143.842 356.989 148.227 352.86 152.998C348.884 157.616 343.524 161.624 336.782 165.023C330.038 168.268 321.448 169.908 311.01 169.941ZM282.914 96.5849L336.33 96.4123C335.694 89.8141 332.991 84.5273 328.22 80.5518C323.602 76.5759 317.533 74.6001 310.012 74.6244C302.184 74.6497 295.973 76.6652 291.382 80.6709C286.79 84.6766 283.967 89.9812 282.914 96.5849ZM447.116 169.501C438.06 169.531 429.534 167.333 421.538 162.907C413.695 158.328 407.38 151.671 402.594 142.937C397.807 134.204 395.394 123.62 395.353 111.187L395.342 107.503C395.301 95.0705 397.646 84.4718 402.376 75.7074C407.106 66.9429 413.378 60.3224 421.192 55.8458C429.005 51.2157 437.517 48.8858 446.726 48.856C453.633 48.8337 459.392 49.6593 464.002 51.3328C468.766 52.8524 472.609 54.8354 475.534 57.2819C478.458 59.7283 480.692 62.3305 482.236 65.0884L486.38 65.075L486.186 4.98256L515.196 4.88881L515.717 166.056L487.167 166.149L487.123 152.334L482.978 152.348C480.383 156.654 476.328 160.581 470.814 164.129C465.453 167.677 457.554 169.468 447.116 169.501ZM455.783 144.147C464.686 144.118 472.121 141.254 478.089 135.556C484.056 129.704 487.022 121.252 486.986 110.2L486.979 107.898C486.943 96.8466 483.923 88.4909 477.919 82.831C472.067 77.0171 464.613 74.1248 455.557 74.1541C446.654 74.1828 439.22 77.1232 433.252 82.9753C427.284 88.6739 424.318 97.0489 424.354 108.1L424.361 110.403C424.397 121.454 427.417 129.887 433.423 135.7C439.427 141.36 446.881 144.176 455.783 144.147ZM557.09 165.923L556.721 51.724L585.731 51.6302L586.1 165.829L557.09 165.923ZM571.183 38.3232C565.964 38.3401 561.507 36.666 557.812 33.3011C554.271 29.9356 552.492 25.4901 552.474 19.9643C552.456 14.4386 554.207 9.98157 557.726 6.59332C561.399 3.20457 565.845 1.50176 571.064 1.4849C576.436 1.46754 580.893 3.14158 584.434 6.50702C587.975 9.87245 589.755 14.318 589.773 19.8438C589.79 25.3695 588.04 29.8265 584.52 33.2148C581.001 36.603 576.555 38.3058 571.183 38.3232ZM671.202 165.554C663.681 165.578 657.534 163.296 652.761 158.706C648.141 153.963 645.818 147.677 645.793 139.849L645.584 75.3819L617.035 75.4742L616.957 51.5293L645.507 51.437L645.392 15.9802L674.402 15.8864L674.517 51.3433L705.83 51.2421L705.907 75.187L674.594 75.2882L674.786 134.69C674.801 139.295 676.958 141.59 681.255 141.576L703.358 141.505L703.436 165.45L671.202 165.554ZM741.668 165.326L741.299 51.1275L770.309 51.0338L770.678 165.232L741.668 165.326ZM755.761 37.7268C750.542 37.7436 746.085 36.0696 742.391 32.7046C738.849 29.3392 737.07 24.8936 737.052 19.3679C737.034 13.8421 738.785 9.38513 742.304 5.99687C745.977 2.60812 750.423 0.905315 755.642 0.888451C761.014 0.871091 765.471 2.54513 769.012 5.91057C772.553 9.27601 774.333 13.7216 774.351 19.2473C774.369 24.7731 772.618 29.2301 769.098 32.6183C765.579 36.0066 761.133 37.7094 755.761 37.7268ZM830.915 165.038L830.623 74.784L801.613 74.8777L801.535 50.9329L830.546 50.8391L830.477 29.6571C830.452 21.829 832.734 15.605 837.324 10.9854C842.067 6.21173 848.199 3.81275 855.72 3.78844L885.651 3.69172L885.729 27.6366L865.928 27.7006C861.63 27.7145 859.489 30.0238 859.504 34.6286L859.556 50.7454L889.487 50.6486L889.564 74.5935L859.633 74.6903L859.925 164.944L830.915 165.038ZM934.106 210.753L934.024 185.426L996.189 185.226C1000.49 185.212 1002.63 182.902 1002.61 178.298L1002.52 149.518L998.376 149.531C997.157 152.144 995.246 154.76 992.645 157.378C990.044 159.996 986.521 162.156 982.075 163.859C977.629 165.561 971.953 166.424 965.046 166.446C956.143 166.475 948.309 164.505 941.542 160.536C934.928 156.413 929.768 150.75 926.061 143.548C922.354 136.346 920.485 128.063 920.455 118.7L920.235 50.5493L949.245 50.4555L949.457 116.304C949.485 124.9 951.578 131.34 955.736 135.624C960.048 139.908 966.118 142.037 973.946 142.012C982.849 141.983 989.747 139.044 994.639 133.196C999.532 127.194 1001.96 118.897 1001.93 108.306L1001.74 50.2859L1030.75 50.1922L1031.18 184.652C1031.21 192.48 1028.93 198.704 1024.34 203.324C1019.75 208.097 1013.62 210.496 1005.94 210.521L934.106 210.753Z" fill="url(#paint0_linear_1_18)"/>
<defs>
<linearGradient id="paint0_linear_1_18" x1="-11.2393" y1="87.7588" x2="1047.76" y2="84.3367" gradientUnits="userSpaceOnUse">
<stop stop-color="#A588B7"/>
<stop offset="1" stop-color="#84C9BB"/>
</linearGradient>
</defs>
</svg>
