<svg width="838" height="218" viewBox="0 0 838 218" fill="none" xmlns="http://www.w3.org/2000/svg">
<path d="M113.52 127.44C110.96 141.04 104.96 151.76 95.5199 159.6C86.0799 167.28 74.0799 171.12 59.5199 171.12C47.6799 171.12 37.2799 168.48 28.3199 163.2C19.3599 157.92 12.3999 150.56 7.43988 141.12C2.47988 131.52 -0.000116587 120.56 -0.000116587 108.24C-0.000116587 95.92 2.47988 85.04 7.43988 75.6C12.5599 66.16 19.6799 58.88 28.7999 53.76C37.9199 48.48 48.3999 45.84 60.2399 45.84C74.6399 45.84 86.4799 49.68 95.7599 57.36C105.2 65.04 111.12 75.6 113.52 89.04H93.5999C91.6799 81.2 87.6799 74.96 81.5999 70.32C75.5199 65.68 68.1599 63.36 59.5199 63.36C47.8399 63.36 38.3199 67.52 30.9599 75.84C23.7599 84.16 20.1599 94.96 20.1599 108.24C20.1599 121.68 23.7599 132.64 30.9599 141.12C38.3199 149.44 47.8399 153.6 59.5199 153.6C68.4799 153.6 75.9999 151.28 82.0799 146.64C88.1599 142 92.0799 135.6 93.8399 127.44H113.52ZM198.433 47.28V66.48H188.593C176.913 66.48 168.513 70.4 163.393 78.24C158.433 86.08 155.953 95.76 155.953 107.28V169.68H136.273V47.28H153.313L155.953 65.76C159.473 60.16 164.033 55.68 169.633 52.32C175.233 48.96 182.993 47.28 192.913 47.28H198.433ZM205.078 108.48C205.078 96 207.478 85.04 212.278 75.6C217.238 66.16 224.118 58.88 232.918 53.76C241.718 48.48 251.798 45.84 263.158 45.84C274.358 45.84 284.278 48.16 292.918 52.8C301.558 57.44 308.358 64.16 313.318 72.96C318.278 81.76 320.918 92.08 321.238 103.92C321.238 105.68 321.078 108.48 320.758 112.32H225.718V114C226.038 126 229.718 135.6 236.758 142.8C243.798 150 252.998 153.6 264.358 153.6C273.158 153.6 280.598 151.44 286.678 147.12C292.918 142.64 297.078 136.48 299.158 128.64H319.078C316.678 141.12 310.678 151.36 301.078 159.36C291.478 167.2 279.718 171.12 265.798 171.12C253.638 171.12 242.998 168.56 233.878 163.44C224.758 158.16 217.638 150.8 212.518 141.36C207.558 131.76 205.078 120.8 205.078 108.48ZM300.838 96C299.878 85.6 295.958 77.52 289.078 71.76C282.358 66 273.798 63.12 263.398 63.12C254.118 63.12 245.958 66.16 238.918 72.24C231.878 78.32 227.878 86.24 226.918 96H300.838ZM459.855 1.68V169.68H442.815L440.175 150C429.935 164.08 415.935 171.12 398.175 171.12C386.815 171.12 376.655 168.64 367.695 163.68C358.895 158.72 351.935 151.52 346.815 142.08C341.855 132.64 339.375 121.44 339.375 108.48C339.375 96.16 341.855 85.28 346.815 75.84C351.935 66.4 358.975 59.04 367.935 53.76C376.895 48.48 386.975 45.84 398.175 45.84C408.095 45.84 416.575 47.68 423.615 51.36C430.655 54.88 436.175 59.76 440.175 66V1.68H459.855ZM400.095 153.6C407.935 153.6 414.895 151.76 420.975 148.08C427.215 144.24 432.015 138.96 435.375 132.24C438.735 125.36 440.415 117.6 440.415 108.96C440.415 100.16 438.735 92.32 435.375 85.44C432.015 78.4 427.215 72.96 420.975 69.12C414.895 65.28 407.935 63.36 400.095 63.36C387.935 63.36 378.095 67.6 370.575 76.08C363.215 84.4 359.535 95.2 359.535 108.48C359.535 121.76 363.215 132.64 370.575 141.12C378.095 149.44 387.935 153.6 400.095 153.6ZM496.504 3.8147e-06C500.184 3.8147e-06 503.224 1.2 505.624 3.6C508.024 6 509.224 9.04 509.224 12.72C509.224 16.4 508.024 19.44 505.624 21.84C503.224 24.24 500.184 25.44 496.504 25.44C492.824 25.44 489.784 24.24 487.384 21.84C484.984 19.44 483.784 16.4 483.784 12.72C483.784 9.04 484.984 6 487.384 3.6C489.784 1.2 492.824 3.8147e-06 496.504 3.8147e-06ZM486.664 47.28H506.344V169.68H486.664V47.28ZM541.464 65.28H519.384V47.28H541.464V12.96H561.144V47.28H592.104V65.28H561.144V137.52C561.144 142.64 562.104 146.32 564.024 148.56C566.104 150.64 569.624 151.68 574.584 151.68H595.944V169.68H573.384C561.864 169.68 553.624 167.12 548.664 162C543.864 156.88 541.464 148.8 541.464 137.76V65.28ZM619.785 3.8147e-06C623.465 3.8147e-06 626.505 1.2 628.905 3.6C631.305 6 632.505 9.04 632.505 12.72C632.505 16.4 631.305 19.44 628.905 21.84C626.505 24.24 623.465 25.44 619.785 25.44C616.105 25.44 613.065 24.24 610.665 21.84C608.265 19.44 607.065 16.4 607.065 12.72C607.065 9.04 608.265 6 610.665 3.6C613.065 1.2 616.105 3.8147e-06 619.785 3.8147e-06ZM609.945 47.28H629.625V169.68H609.945V47.28ZM664.746 47.28V33.6C664.746 22.72 667.226 14.72 672.186 9.59999C677.306 4.32 685.466 1.68 696.666 1.68H719.226V19.68H697.866C693.066 19.68 689.626 20.72 687.546 22.8C685.466 24.88 684.426 28.32 684.426 33.12V47.28H718.986V65.28H684.426V169.68H664.746V65.28H642.666V47.28H664.746ZM742.569 47.28L780.249 147.12L816.729 47.28H837.609L781.209 190.32C778.329 197.68 775.769 203.2 773.529 206.88C771.289 210.56 768.489 213.28 765.129 215.04C761.769 216.8 757.289 217.68 751.689 217.68H728.169V199.68H745.689C749.529 199.68 752.409 199.28 754.329 198.48C756.249 197.68 757.769 196.32 758.889 194.4C760.169 192.64 761.689 189.6 763.449 185.28L769.689 170.64L721.689 47.28H742.569Z" fill="white"/>
</svg>
