<svg width="1025" height="214" viewBox="0 0 1025 214" fill="none" xmlns="http://www.w3.org/2000/svg">
<path d="M64.5482 170.717C44.9011 170.781 29.3037 165.305 17.756 154.291C6.20784 143.123 0.399772 127.025 0.33182 105.996L0.209804 68.2372C0.141853 47.2086 5.846 31.15 17.3223 20.0613C28.798 8.81916 44.3594 3.16633 64.0065 3.10284C83.3466 3.04034 98.2528 8.36448 108.725 19.0753C119.351 29.7855 124.694 44.427 124.754 62.9996L124.758 64.3811L100.123 64.4607L100.116 62.3885C100.081 51.4905 97.0587 42.5976 91.0502 35.7098C85.1951 28.8214 76.2046 25.3969 64.0787 25.4361C51.7993 25.4757 42.2181 29.2673 35.3352 36.8108C28.4519 44.2008 25.0315 54.4959 25.0742 67.6963L25.1992 106.377C25.2413 119.423 28.7281 129.696 35.6596 137.195C42.5911 144.694 52.1966 148.424 64.476 148.384C76.6019 148.345 85.5701 144.862 91.3805 137.936C97.3439 130.856 100.308 121.944 100.274 111.199L100.261 107.285L124.897 107.206L124.907 110.429C124.967 129.002 119.719 143.677 109.163 154.456C98.7597 165.234 83.8883 170.655 64.5482 170.717ZM162.523 167.177L162.156 53.6691L185.41 53.594L185.453 66.9478L189.137 66.9359C190.963 62.1717 193.869 58.7087 197.853 56.5469C201.989 54.2311 207.051 53.0635 213.037 53.0442L226.621 53.0003L226.691 74.4126L212.185 74.4594C204.511 74.4842 198.225 76.6535 193.327 80.9672C188.428 85.1273 185.993 91.582 186.021 100.331L186.237 167.1L162.523 167.177ZM308.767 169.928C297.255 169.965 287.194 167.618 278.583 162.888C269.971 158.004 263.196 151.195 258.256 142.462C253.469 133.575 251.056 123.299 251.019 111.633L251.01 108.87C250.971 97.0513 253.317 86.7596 258.047 77.9951C262.777 69.0771 269.355 62.2254 277.782 57.4398C286.361 52.5003 296.254 50.0124 307.459 49.9762C318.357 49.941 327.881 52.3661 336.032 57.2516C344.336 61.9831 350.805 68.6392 355.437 77.2199C360.07 85.8006 362.405 95.847 362.442 107.359L362.471 116.338L275.21 116.62C275.549 126.596 278.875 134.567 285.188 140.533C291.653 146.345 299.644 149.236 309.161 149.205C318.063 149.176 324.734 147.159 329.172 143.154C333.764 139.148 337.28 134.532 339.719 129.305L359.322 139.373C357.187 143.677 354.055 148.216 349.926 152.987C345.95 157.758 340.668 161.766 334.078 165.011C327.488 168.256 319.051 169.895 308.767 169.928ZM275.381 98.4306L338.237 98.2275C337.595 89.6339 334.504 82.9669 328.963 78.2264C323.421 73.3325 316.199 70.9 307.296 70.9287C298.394 70.9575 291.111 73.4369 285.447 78.3671C279.937 83.1432 276.582 89.831 275.381 98.4306ZM447.368 169.48C438.005 169.51 429.325 167.236 421.328 162.657C413.332 158.078 406.864 151.499 401.924 142.919C397.138 134.185 394.725 123.679 394.685 111.399L394.674 107.946C394.635 95.8196 396.98 85.3744 401.71 76.6099C406.44 67.8454 412.788 61.1479 420.755 56.5173C428.722 51.8868 437.464 49.5561 446.98 49.5253C454.348 49.5015 460.491 50.4026 465.408 52.2287C470.479 54.0542 474.631 56.42 477.864 59.3259C481.097 62.0784 483.562 64.9868 485.26 68.0512L488.944 68.0393L488.74 4.95374L512.455 4.87711L512.976 166.045L489.721 166.12L489.669 150.003L485.986 150.015C483.085 154.936 478.648 159.402 472.675 163.412C466.855 167.422 458.419 169.444 447.368 169.48ZM453.978 148.737C464.262 148.704 472.693 145.376 479.272 138.755C486.004 132.133 489.351 122.682 489.311 110.403L489.304 108.33C489.265 96.2045 485.935 86.8521 479.313 80.2733C472.692 73.6944 464.162 70.4218 453.725 70.4555C443.594 70.4883 435.163 73.8157 428.431 80.4377C421.852 87.0592 418.582 96.4329 418.621 108.559L418.628 110.631C418.667 122.91 421.998 132.34 428.619 138.918C435.394 145.497 443.847 148.77 453.978 148.737ZM557.095 165.902L556.728 52.3941L580.443 52.3175L580.81 165.825L557.095 165.902ZM568.651 36.9294C564.046 36.9442 560.127 35.4987 556.895 32.5928C553.815 29.5328 552.267 25.6237 552.252 20.8654C552.237 16.1072 553.759 12.2649 556.82 9.33859C560.033 6.25831 563.942 4.71073 568.547 4.69585C573.305 4.68047 577.224 6.20276 580.304 9.2627C583.383 12.1691 584.931 16.0015 584.946 20.7598C584.961 25.5181 583.439 29.4371 580.379 32.5169C577.319 35.4432 573.409 36.914 568.651 36.9294ZM667.808 165.544C660.901 165.567 655.368 163.512 651.211 159.381C647.206 155.25 645.193 149.731 645.171 142.824L644.942 72.1401L613.63 72.2412L613.565 52.2104L644.878 52.1092L644.756 14.5802L668.471 14.5036L668.592 52.0326L702.438 51.9232L702.502 71.9541L668.657 72.0634L668.872 138.603C668.887 143.207 671.043 145.503 675.341 145.489L699.056 145.412L699.121 165.443L667.808 165.544ZM739.875 165.311L739.508 51.8034L763.223 51.7268L763.589 165.235L739.875 165.311ZM751.43 36.3387C746.826 36.3536 742.907 34.9081 739.674 32.0021C736.594 28.9422 735.047 25.0331 735.031 20.2748C735.016 15.5165 736.539 11.6742 739.599 8.74795C742.812 5.66767 746.722 4.12009 751.326 4.10521C756.085 4.08984 760.004 5.61212 763.083 8.67207C766.163 11.5785 767.71 15.4109 767.725 20.1691C767.741 24.9274 766.218 28.8465 763.159 31.9262C760.098 34.8525 756.189 36.3234 751.43 36.3387ZM828.484 165.025L828.182 71.5479L796.409 71.6506L796.345 51.6198L828.118 51.5171L828.037 26.6513C828.015 19.7441 830.069 14.2116 834.2 10.0539C838.331 5.89624 843.85 3.80623 850.757 3.78391L879.998 3.68943L880.062 23.7202L858.42 23.7902C853.969 23.8046 851.75 26.1142 851.765 30.7189L851.832 51.4405L884.526 51.3348L884.591 71.3657L851.897 71.4713L852.199 164.948L828.484 165.025ZM931.655 210.74L931.588 190.019L994.903 189.814C999.201 189.8 1001.34 187.491 1001.33 182.886L1001.21 147.89L997.531 147.901C996.159 150.976 994.02 153.976 991.113 156.902C988.359 159.673 984.606 161.988 979.854 163.845C975.101 165.703 969.118 166.643 961.904 166.666C953.308 166.694 945.628 164.8 938.861 160.985C932.095 157.169 926.782 151.737 922.922 144.689C919.062 137.641 917.116 129.281 917.085 119.611L916.864 51.2303L940.579 51.1537L940.794 117.693C940.826 127.516 943.305 134.799 948.232 139.542C953.159 144.131 959.997 146.411 968.746 146.383C978.416 146.352 986.157 143.103 991.969 136.638C997.934 130.172 1000.9 120.799 1000.86 108.519L1000.67 50.9595L1024.39 50.8829L1024.83 187.645C1024.85 194.552 1022.8 200.085 1018.66 204.242C1014.69 208.4 1009.17 210.49 1002.11 210.512L931.655 210.74Z" fill="url(#paint0_linear_1_18)"/>
<defs>
<linearGradient id="paint0_linear_1_18" x1="-12.3905" y1="87.7419" x2="1042.6" y2="84.3328" gradientUnits="userSpaceOnUse">
<stop stop-color="#A588B7"/>
<stop offset="1" stop-color="#84C9BB"/>
</linearGradient>
</defs>
</svg>
