<svg width="834" height="185" viewBox="0 0 834 185" fill="none" xmlns="http://www.w3.org/2000/svg">
<mask id="path-1-outside-1_3_98" maskUnits="userSpaceOnUse" x="0" y="-0.199951" width="834" height="185" fill="black">
<rect fill="white" y="-0.199951" width="834" height="185"/>
<path d="M57.4 146.6C40.0667 146.6 26.3333 141.8 16.2 132.2C6.06667 122.467 1 108.6 1 90.6V57C1 39 6.06667 25.2 16.2 15.6C26.3333 5.86671 40.0667 1.00004 57.4 1.00004C74.6 1.00004 87.8667 5.73338 97.2 15.2C106.667 24.5334 111.4 37.4 111.4 53.8V55H85.4V53C85.4 44.7334 83.0667 37.9334 78.4 32.6C73.8667 27.2667 66.8667 24.6 57.4 24.6C48.0667 24.6 40.7333 27.4667 35.4 33.2C30.0667 38.9334 27.4 46.7334 27.4 56.6V91C27.4 100.733 30.0667 108.533 35.4 114.4C40.7333 120.133 48.0667 123 57.4 123C66.8667 123 73.8667 120.333 78.4 115C83.0667 109.533 85.4 102.733 85.4 94.6V91H111.4V93.8C111.4 110.2 106.667 123.133 97.2 132.6C87.8667 141.933 74.6 146.6 57.4 146.6ZM133.711 143.8V44.6H158.511V55.8H162.111C163.578 51.8 165.978 48.8667 169.311 47C172.778 45.1334 176.778 44.2 181.311 44.2H193.311V66.6H180.911C174.511 66.6 169.244 68.3334 165.111 71.8C160.978 75.1334 158.911 80.3334 158.911 87.4V143.8H133.711ZM254.692 146.6C244.826 146.6 236.092 144.533 228.492 140.4C221.026 136.133 215.159 130.2 210.892 122.6C206.759 114.867 204.692 105.8 204.692 95.4V93C204.692 82.6 206.759 73.6 210.892 66C215.026 58.2667 220.826 52.3334 228.292 48.2C235.759 43.9334 244.426 41.8 254.292 41.8C264.026 41.8 272.492 44 279.692 48.4C286.892 52.6667 292.492 58.6667 296.492 66.4C300.492 74 302.492 82.8667 302.492 93V101.6H230.292C230.559 108.4 233.092 113.933 237.892 118.2C242.692 122.467 248.559 124.6 255.492 124.6C262.559 124.6 267.759 123.067 271.092 120C274.426 116.933 276.959 113.533 278.692 109.8L299.292 120.6C297.426 124.067 294.692 127.867 291.092 132C287.626 136 282.959 139.467 277.092 142.4C271.226 145.2 263.759 146.6 254.692 146.6ZM230.492 82.8H276.892C276.359 77.0667 274.026 72.4667 269.892 69C265.892 65.5334 260.626 63.8 254.092 63.8C247.292 63.8 241.892 65.5334 237.892 69C233.892 72.4667 231.426 77.0667 230.492 82.8ZM364.922 146.6C357.055 146.6 349.655 144.667 342.722 140.8C335.922 136.8 330.455 131 326.322 123.4C322.189 115.8 320.122 106.6 320.122 95.8V92.6C320.122 81.8 322.189 72.6 326.322 65C330.455 57.4 335.922 51.6667 342.722 47.8C349.522 43.8 356.922 41.8 364.922 41.8C370.922 41.8 375.922 42.5334 379.922 44C384.055 45.3334 387.389 47.0667 389.922 49.2C392.455 51.3334 394.389 53.6 395.722 56H399.322V3.80004H424.522V143.8H399.722V131.8H396.122C393.855 135.533 390.322 138.933 385.522 142C380.855 145.067 373.989 146.6 364.922 146.6ZM372.522 124.6C380.255 124.6 386.722 122.133 391.922 117.2C397.122 112.133 399.722 104.8 399.722 95.2V93.2C399.722 83.6 397.122 76.3334 391.922 71.4C386.855 66.3334 380.389 63.8 372.522 63.8C364.789 63.8 358.322 66.3334 353.122 71.4C347.922 76.3334 345.322 83.6 345.322 93.2V95.2C345.322 104.8 347.922 112.133 353.122 117.2C358.322 122.133 364.789 124.6 372.522 124.6ZM452.461 143.8V44.6H477.661V143.8H452.461ZM465.061 33C460.528 33 456.661 31.5334 453.461 28.6C450.394 25.6667 448.861 21.8 448.861 17C448.861 12.2 450.394 8.33338 453.461 5.40004C456.661 2.46671 460.528 1.00004 465.061 1.00004C469.728 1.00004 473.594 2.46671 476.661 5.40004C479.728 8.33338 481.261 12.2 481.261 17C481.261 21.8 479.728 25.6667 476.661 28.6C473.594 31.5334 469.728 33 465.061 33ZM543.586 143.8C537.053 143.8 531.719 141.8 527.586 137.8C523.586 133.667 521.586 128.2 521.586 121.4V65.4H496.786V44.6H521.586V13.8H546.786V44.6H573.986V65.4H546.786V117C546.786 121 548.653 123 552.386 123H571.586V143.8H543.586ZM596.797 143.8V44.6H621.997V143.8H596.797ZM609.397 33C604.864 33 600.997 31.5334 597.797 28.6C594.73 25.6667 593.197 21.8 593.197 17C593.197 12.2 594.73 8.33338 597.797 5.40004C600.997 2.46671 604.864 1.00004 609.397 1.00004C614.064 1.00004 617.93 2.46671 620.997 5.40004C624.064 8.33338 625.597 12.2 625.597 17C625.597 21.8 624.064 25.6667 620.997 28.6C617.93 31.5334 614.064 33 609.397 33ZM666.322 143.8V65.4H641.122V44.6H666.322V26.2C666.322 19.4 668.322 14 672.322 10C676.455 5.86671 681.789 3.80004 688.322 3.80004H714.322V24.6H697.122C693.389 24.6 691.522 26.6 691.522 30.6V44.6H717.522V65.4H691.522V143.8H666.322ZM747.831 183.8V161.8H801.831C805.565 161.8 807.431 159.8 807.431 155.8V130.8H803.831C802.765 133.067 801.098 135.333 798.831 137.6C796.565 139.867 793.498 141.733 789.631 143.2C785.765 144.667 780.831 145.4 774.831 145.4C767.098 145.4 760.298 143.667 754.431 140.2C748.698 136.6 744.231 131.667 741.031 125.4C737.831 119.133 736.231 111.933 736.231 103.8V44.6H761.431V101.8C761.431 109.267 763.231 114.867 766.831 118.6C770.565 122.333 775.831 124.2 782.631 124.2C790.365 124.2 796.365 121.667 800.631 116.6C804.898 111.4 807.031 104.2 807.031 95V44.6H832.231V161.4C832.231 168.2 830.231 173.6 826.231 177.6C822.231 181.733 816.898 183.8 810.231 183.8H747.831Z"/>
</mask>
<path d="M16.2 132.2L15.5073 132.921L15.5123 132.926L16.2 132.2ZM16.2 15.6L16.8878 16.326L16.8927 16.3212L16.2 15.6ZM97.2 15.2001L96.4879 15.9021L96.4929 15.9072L96.4979 15.9122L97.2 15.2001ZM111.4 55V56H112.4V55H111.4ZM85.4 55H84.4V56H85.4V55ZM78.4 32.6L77.6381 33.2477L77.6427 33.2532L77.6474 33.2585L78.4 32.6ZM35.4 114.4L34.66 115.073L34.6678 115.081L35.4 114.4ZM78.4 115L77.6394 114.351L77.6381 114.352L78.4 115ZM85.4 91V90H84.4V91H85.4ZM111.4 91H112.4V90H111.4V91ZM97.2 132.6L96.4929 131.893L97.2 132.6ZM57.4 146.6V145.6C40.2576 145.6 26.793 140.858 16.8877 131.474L16.2 132.2L15.5123 132.926C25.8737 142.742 39.8757 147.6 57.4 147.6V146.6ZM16.2 132.2L16.8927 131.479C7.00713 121.983 2 108.409 2 90.6001H1H0C0 108.792 5.1262 122.95 15.5073 132.921L16.2 132.2ZM1 90.6001H2V57H1H0V90.6001H1ZM1 57H2C2 39.1908 7.00736 25.6864 16.8877 16.326L16.2 15.6L15.5123 14.8741C5.12597 24.7137 0 38.8093 0 57H1ZM16.2 15.6L16.8927 16.3212C26.7985 6.80649 40.2613 2.00004 57.4 2.00004V1.00004V3.8147e-05C39.872 3.8147e-05 25.8682 4.92693 15.5073 14.8788L16.2 15.6ZM57.4 1.00004V2.00004C74.4146 2.00004 87.3933 6.67762 96.4879 15.9021L97.2 15.2001L97.9121 14.498C88.34 4.78913 74.7854 3.8147e-05 57.4 3.8147e-05V1.00004ZM97.2 15.2001L96.4979 15.9122C105.731 25.0155 110.4 37.6012 110.4 53.8H111.4H112.4C112.4 37.1989 107.602 24.0512 97.9021 14.4879L97.2 15.2001ZM111.4 53.8H110.4V55H111.4H112.4V53.8H111.4ZM111.4 55V54H85.4V55V56H111.4V55ZM85.4 55H86.4V53H85.4H84.4V55H85.4ZM85.4 53H86.4C86.4 44.5338 84.0048 37.4869 79.1526 31.9415L78.4 32.6L77.6474 33.2585C82.1286 38.3798 84.4 44.9329 84.4 53H85.4ZM78.4 32.6L79.1619 31.9524C74.3778 26.324 67.0509 23.6 57.4 23.6V24.6V25.6C66.6824 25.6 73.3556 28.2095 77.6381 33.2477L78.4 32.6ZM57.4 24.6V23.6C47.8468 23.6 40.2264 26.5434 34.6678 32.5189L35.4 33.2L36.1322 33.8811C41.2402 28.39 48.2866 25.6 57.4 25.6V24.6ZM35.4 33.2L34.6678 32.5189C29.1208 38.482 26.4 46.5491 26.4 56.6H27.4H28.4C28.4 46.9176 31.0126 39.3848 36.1322 33.8811L35.4 33.2ZM27.4 56.6H26.4V91H27.4H28.4V56.6H27.4ZM27.4 91H26.4C26.4 100.923 29.1234 108.982 34.6601 115.073L35.4 114.4L36.1399 113.727C31.01 108.084 28.4 100.544 28.4 91H27.4ZM35.4 114.4L34.6678 115.081C40.2264 121.057 47.8468 124 57.4 124V123V122C48.2866 122 41.2402 119.21 36.1322 113.719L35.4 114.4ZM57.4 123V124C67.0509 124 74.3778 121.276 79.1619 115.648L78.4 115L77.6381 114.352C73.3556 119.391 66.6824 122 57.4 122V123ZM78.4 115L79.1606 115.649C84.0021 109.978 86.4 102.938 86.4 94.6001H85.4H84.4C84.4 102.529 82.1312 109.089 77.6394 114.351L78.4 115ZM85.4 94.6001H86.4V91H85.4H84.4V94.6001H85.4ZM85.4 91V92H111.4V91V90H85.4V91ZM111.4 91H110.4V93.8H111.4H112.4V91H111.4ZM111.4 93.8H110.4C110.4 109.998 105.731 122.654 96.4929 131.893L97.2 132.6L97.9071 133.307C107.602 123.612 112.4 110.402 112.4 93.8H111.4ZM97.2 132.6L96.4929 131.893C87.399 140.987 74.4185 145.6 57.4 145.6V146.6V147.6C74.7815 147.6 88.3344 142.88 97.9071 133.307L97.2 132.6ZM133.711 143.8H132.711V144.8H133.711V143.8ZM133.711 44.6V43.6H132.711V44.6H133.711ZM158.511 44.6H159.511V43.6H158.511V44.6ZM158.511 55.8H157.511V56.8H158.511V55.8ZM162.111 55.8V56.8H162.809L163.05 56.1443L162.111 55.8ZM169.311 47L168.837 46.1196L168.83 46.1235L168.822 46.1275L169.311 47ZM193.311 44.2H194.311V43.2H193.311V44.2ZM193.311 66.6V67.6H194.311V66.6H193.311ZM165.111 71.8L165.739 72.5785L165.746 72.5724L165.754 72.5662L165.111 71.8ZM158.911 143.8V144.8H159.911V143.8H158.911ZM133.711 143.8H134.711V44.6H133.711H132.711V143.8H133.711ZM133.711 44.6V45.6H158.511V44.6V43.6H133.711V44.6ZM158.511 44.6H157.511V55.8H158.511H159.511V44.6H158.511ZM158.511 55.8V56.8H162.111V55.8V54.8H158.511V55.8ZM162.111 55.8L163.05 56.1443C164.444 52.3409 166.699 49.6089 169.8 47.8726L169.311 47L168.822 46.1275C165.256 48.1245 162.711 51.2592 161.172 55.4558L162.111 55.8ZM169.311 47L169.785 47.8805C173.085 46.1035 176.918 45.2 181.311 45.2V44.2V43.2C176.637 43.2 172.47 44.1633 168.837 46.1196L169.311 47ZM181.311 44.2V45.2H193.311V44.2V43.2H181.311V44.2ZM193.311 44.2H192.311V66.6H193.311H194.311V44.2H193.311ZM193.311 66.6V65.6H180.911V66.6V67.6H193.311V66.6ZM180.911 66.6V65.6C174.322 65.6 168.814 67.3891 164.468 71.0339L165.111 71.8L165.754 72.5662C169.675 69.2777 174.7 67.6 180.911 67.6V66.6ZM165.111 71.8L164.483 71.0216C160.042 74.6032 157.911 80.1382 157.911 87.4001H158.911H159.911C159.911 80.5286 161.913 75.6636 165.739 72.5785L165.111 71.8ZM158.911 87.4001H157.911V143.8H158.911H159.911V87.4001H158.911ZM158.911 143.8V142.8H133.711V143.8V144.8H158.911V143.8ZM228.492 140.4L227.996 141.268L228.005 141.274L228.014 141.279L228.492 140.4ZM210.892 122.6L210.01 123.071L210.015 123.081L210.02 123.09L210.892 122.6ZM210.892 66L211.771 66.4778L211.774 66.4714L210.892 66ZM228.292 48.2L228.777 49.075L228.788 49.0683L228.292 48.2ZM279.692 48.4L279.171 49.2534L279.182 49.2603L279.692 48.4ZM296.492 66.4L295.604 66.8595L295.607 66.8658L296.492 66.4ZM302.492 101.6V102.6H303.492V101.6H302.492ZM230.292 101.6V100.6H229.252L229.293 101.639L230.292 101.6ZM271.092 120L270.415 119.264L271.092 120ZM278.692 109.8L279.157 108.914L278.227 108.427L277.785 109.379L278.692 109.8ZM299.292 120.6L300.173 121.074L300.652 120.184L299.757 119.714L299.292 120.6ZM291.092 132L290.338 131.343L290.336 131.345L291.092 132ZM277.092 142.4L277.523 143.303L277.531 143.299L277.539 143.294L277.092 142.4ZM230.492 82.8L229.505 82.6394L229.316 83.8H230.492V82.8ZM276.892 82.8V83.8H277.99L277.888 82.7074L276.892 82.8ZM269.892 69L269.237 69.7557L269.243 69.761L269.25 69.7662L269.892 69ZM254.692 146.6V145.6C244.969 145.6 236.404 143.565 228.97 139.522L228.492 140.4L228.014 141.279C235.781 145.502 244.682 147.6 254.692 147.6V146.6ZM228.492 140.4L228.988 139.532C221.681 135.356 215.943 129.555 211.764 122.111L210.892 122.6L210.02 123.09C214.374 130.845 220.37 136.91 227.996 141.268L228.492 140.4ZM210.892 122.6L211.774 122.129C207.732 114.565 205.692 105.666 205.692 95.4H204.692H203.692C203.692 105.934 205.786 115.168 210.01 123.071L210.892 122.6ZM204.692 95.4H205.692V93H204.692H203.692V95.4H204.692ZM204.692 93H205.692C205.692 82.7334 207.732 73.9043 211.771 66.4778L210.892 66L210.014 65.5223C205.786 73.2958 203.692 82.4667 203.692 93H204.692ZM210.892 66L211.774 66.4714C215.819 58.9032 221.483 53.1122 228.777 49.0749L228.292 48.2L227.808 47.3251C220.168 51.5545 214.232 57.6302 210.01 65.5287L210.892 66ZM228.292 48.2L228.788 49.0683C236.083 44.9 244.574 42.8 254.292 42.8V41.8V40.8C244.277 40.8 235.435 42.9668 227.796 47.3318L228.292 48.2ZM254.292 41.8V42.8C263.87 42.8 272.151 44.9632 279.171 49.2533L279.692 48.4L280.214 47.5468C272.834 43.0368 264.181 40.8 254.292 40.8V41.8ZM279.692 48.4L279.182 49.2603C286.214 53.4275 291.686 59.2855 295.604 66.8595L296.492 66.4L297.38 65.9406C293.298 58.0479 287.57 51.9059 280.202 47.5397L279.692 48.4ZM296.492 66.4L295.607 66.8658C299.519 74.2984 301.492 82.9998 301.492 93H302.492H303.492C303.492 82.7336 301.465 73.7017 297.377 65.9343L296.492 66.4ZM302.492 93H301.492V101.6H302.492H303.492V93H302.492ZM302.492 101.6V100.6H230.292V101.6V102.6H302.492V101.6ZM230.292 101.6L229.293 101.639C229.57 108.693 232.211 114.488 237.228 118.947L237.892 118.2L238.557 117.453C233.973 113.378 231.548 108.107 231.291 101.561L230.292 101.6ZM237.892 118.2L237.228 118.947C242.226 123.39 248.335 125.6 255.492 125.6V124.6V123.6C248.783 123.6 243.158 121.543 238.557 117.453L237.892 118.2ZM255.492 124.6V125.6C262.675 125.6 268.172 124.046 271.769 120.736L271.092 120L270.415 119.264C267.346 122.088 262.443 123.6 255.492 123.6V124.6ZM271.092 120L271.769 120.736C275.189 117.589 277.805 114.085 279.599 110.221L278.692 109.8L277.785 109.379C276.112 112.982 273.662 116.277 270.415 119.264L271.092 120ZM278.692 109.8L278.228 110.686L298.828 121.486L299.292 120.6L299.757 119.714L279.157 108.914L278.692 109.8ZM299.292 120.6L298.412 120.126C296.591 123.507 293.907 127.246 290.338 131.343L291.092 132L291.846 132.657C295.478 128.488 298.26 124.626 300.173 121.074L299.292 120.6ZM291.092 132L290.336 131.345C286.974 135.225 282.421 138.617 276.645 141.506L277.092 142.4L277.539 143.294C283.496 140.316 288.277 136.775 291.848 132.655L291.092 132ZM277.092 142.4L276.661 141.498C270.972 144.213 263.665 145.6 254.692 145.6V146.6V147.6C263.853 147.6 271.48 146.187 277.523 143.303L277.092 142.4ZM230.492 82.8V83.8H276.892V82.8V81.8H230.492V82.8ZM276.892 82.8L277.888 82.7074C277.332 76.7314 274.884 71.882 270.535 68.2339L269.892 69L269.25 69.7662C273.167 73.0514 275.386 77.4021 275.896 82.8927L276.892 82.8ZM269.892 69L270.547 68.2444C266.325 64.5856 260.808 62.8 254.092 62.8V63.8V64.8C260.443 64.8 265.459 66.4812 269.237 69.7557L269.892 69ZM254.092 63.8V62.8C247.122 62.8 241.466 64.5795 237.237 68.2444L237.892 69L238.547 69.7557C242.318 66.4872 247.463 64.8 254.092 64.8V63.8ZM237.892 69L237.237 68.2444C233.043 71.8796 230.472 76.699 229.505 82.6394L230.492 82.8L231.479 82.9607C232.379 77.4344 234.742 73.0538 238.547 69.7557L237.892 69ZM342.722 140.8L342.215 141.662L342.225 141.668L342.235 141.673L342.722 140.8ZM326.322 123.4L327.2 122.922L326.322 123.4ZM326.322 65L327.2 65.4778L326.322 65ZM342.722 47.8L343.216 48.6693L343.223 48.6657L343.229 48.662L342.722 47.8ZM379.922 44L379.578 44.9389L379.596 44.9457L379.615 44.9518L379.922 44ZM389.922 49.2L389.278 49.965L389.922 49.2ZM395.722 56L394.848 56.4857L395.133 57H395.722V56ZM399.322 56V57H400.322V56H399.322ZM399.322 3.80004V2.80004H398.322V3.80004H399.322ZM424.522 3.80004H425.522V2.80004H424.522V3.80004ZM424.522 143.8V144.8H425.522V143.8H424.522ZM399.722 143.8H398.722V144.8H399.722V143.8ZM399.722 131.8H400.722V130.8H399.722V131.8ZM396.122 131.8V130.8H395.559L395.267 131.281L396.122 131.8ZM385.522 142L384.983 141.157L384.973 141.164L385.522 142ZM391.922 117.2L392.61 117.926L392.62 117.916L391.922 117.2ZM391.922 71.4L391.215 72.1072L391.224 72.1165L391.234 72.1255L391.922 71.4ZM353.122 71.4L353.81 72.1256L353.82 72.1163L353.122 71.4ZM353.122 117.2L352.424 117.916L352.434 117.926L353.122 117.2ZM364.922 146.6V145.6C357.227 145.6 349.995 143.711 343.209 139.927L342.722 140.8L342.235 141.673C349.316 145.622 356.883 147.6 364.922 147.6V146.6ZM342.722 140.8L343.229 139.938C336.6 136.039 331.256 130.379 327.2 122.922L326.322 123.4L325.443 123.878C329.655 131.621 335.244 137.561 342.215 141.662L342.722 140.8ZM326.322 123.4L327.2 122.922C323.164 115.501 321.122 106.474 321.122 95.8H320.122H319.122C319.122 106.726 321.213 116.099 325.443 123.878L326.322 123.4ZM320.122 95.8H321.122V92.6001H320.122H319.122V95.8H320.122ZM320.122 92.6001H321.122C321.122 81.9262 323.164 72.8991 327.2 65.4778L326.322 65L325.443 64.5223C321.213 72.301 319.122 81.6739 319.122 92.6001H320.122ZM326.322 65L327.2 65.4778C331.254 58.0237 336.595 52.4343 343.216 48.6693L342.722 47.8L342.228 46.9308C335.249 50.8991 329.656 56.7764 325.443 64.5223L326.322 65ZM342.722 47.8L343.229 48.662C349.873 44.7537 357.098 42.8 364.922 42.8V41.8V40.8C356.746 40.8 349.171 42.8464 342.215 46.9381L342.722 47.8ZM364.922 41.8V42.8C370.849 42.8 375.723 43.5255 379.578 44.9389L379.922 44L380.266 43.0612C376.121 41.5412 370.995 40.8 364.922 40.8V41.8ZM379.922 44L379.615 44.9518C383.661 46.257 386.869 47.9367 389.278 49.965L389.922 49.2L390.566 48.4351C387.908 46.1967 384.449 44.4097 380.229 43.0483L379.922 44ZM389.922 49.2L389.278 49.965C391.737 52.0357 393.584 54.2114 394.848 56.4857L395.722 56L396.596 55.5144C395.193 52.9887 393.174 50.6311 390.566 48.4351L389.922 49.2ZM395.722 56V57H399.322V56V55H395.722V56ZM399.322 56H400.322V3.80004H399.322H398.322V56H399.322ZM399.322 3.80004V4.80004H424.522V3.80004V2.80004H399.322V3.80004ZM424.522 3.80004H423.522V143.8H424.522H425.522V3.80004H424.522ZM424.522 143.8V142.8H399.722V143.8V144.8H424.522V143.8ZM399.722 143.8H400.722V131.8H399.722H398.722V143.8H399.722ZM399.722 131.8V130.8H396.122V131.8V132.8H399.722V131.8ZM396.122 131.8L395.267 131.281C393.1 134.85 389.692 138.149 384.983 141.157L385.522 142L386.06 142.843C390.951 139.718 394.61 136.217 396.977 132.319L396.122 131.8ZM385.522 142L384.973 141.164C380.542 144.076 373.904 145.6 364.922 145.6V146.6V147.6C374.073 147.6 381.169 146.057 386.071 142.836L385.522 142ZM372.522 124.6V125.6C380.489 125.6 387.209 123.05 392.61 117.926L391.922 117.2L391.234 116.475C386.235 121.217 380.021 123.6 372.522 123.6V124.6ZM391.922 117.2L392.62 117.916C398.069 112.606 400.722 104.979 400.722 95.2H399.722H398.722C398.722 104.621 396.174 111.66 391.224 116.484L391.922 117.2ZM399.722 95.2H400.722V93.2H399.722H398.722V95.2H399.722ZM399.722 93.2H400.722C400.722 83.4225 398.07 75.8544 392.61 70.6746L391.922 71.4L391.234 72.1255C396.174 76.8124 398.722 83.7776 398.722 93.2H399.722ZM391.922 71.4L392.629 70.6929C387.356 65.4195 380.625 62.8 372.522 62.8V63.8V64.8C380.152 64.8 386.355 67.2473 391.215 72.1072L391.922 71.4ZM372.522 63.8V62.8C364.547 62.8 357.824 65.4225 352.424 70.6838L353.122 71.4L353.82 72.1163C358.82 67.2442 365.031 64.8 372.522 64.8V63.8ZM353.122 71.4L352.434 70.6746C346.974 75.8544 344.322 83.4225 344.322 93.2H345.322H346.322C346.322 83.7776 348.87 76.8124 353.81 72.1255L353.122 71.4ZM345.322 93.2H344.322V95.2H345.322H346.322V93.2H345.322ZM345.322 95.2H344.322C344.322 104.979 346.974 112.606 352.424 117.916L353.122 117.2L353.82 116.484C348.869 111.66 346.322 104.621 346.322 95.2H345.322ZM353.122 117.2L352.434 117.926C357.835 123.05 364.555 125.6 372.522 125.6V124.6V123.6C365.023 123.6 358.809 121.217 353.81 116.475L353.122 117.2ZM452.461 143.8H451.461V144.8H452.461V143.8ZM452.461 44.6V43.6H451.461V44.6H452.461ZM477.661 44.6H478.661V43.6H477.661V44.6ZM477.661 143.8V144.8H478.661V143.8H477.661ZM453.461 28.6L452.77 29.3227L452.777 29.33L452.785 29.3372L453.461 28.6ZM453.461 5.40004L452.785 4.66289L452.777 4.67006L452.77 4.6774L453.461 5.40004ZM452.461 143.8H453.461V44.6H452.461H451.461V143.8H452.461ZM452.461 44.6V45.6H477.661V44.6V43.6H452.461V44.6ZM477.661 44.6H476.661V143.8H477.661H478.661V44.6H477.661ZM477.661 143.8V142.8H452.461V143.8V144.8H477.661V143.8ZM465.061 33V32C460.766 32 457.143 30.6191 454.137 27.8629L453.461 28.6L452.785 29.3372C456.178 32.4477 460.29 34 465.061 34V33ZM453.461 28.6L454.152 27.8774C451.309 25.1582 449.861 21.5664 449.861 17H448.861H447.861C447.861 22.0337 449.479 26.1752 452.77 29.3227L453.461 28.6ZM448.861 17H449.861C449.861 12.4337 451.309 8.84184 454.152 6.12268L453.461 5.40004L452.77 4.6774C449.479 7.82491 447.861 11.9664 447.861 17H448.861ZM453.461 5.40004L454.137 6.1372C457.143 3.38098 460.766 2.00004 465.061 2.00004V1.00004V3.8147e-05C460.29 3.8147e-05 456.178 1.55243 452.785 4.66289L453.461 5.40004ZM465.061 1.00004V2.00004C469.498 2.00004 473.108 3.38582 475.97 6.12268L476.661 5.40004L477.352 4.6774C474.08 1.5476 469.957 3.8147e-05 465.061 3.8147e-05V1.00004ZM476.661 5.40004L475.97 6.12268C478.812 8.84184 480.261 12.4337 480.261 17H481.261H482.261C482.261 11.9664 480.643 7.82491 477.352 4.6774L476.661 5.40004ZM481.261 17H480.261C480.261 21.5664 478.812 25.1582 475.97 27.8774L476.661 28.6L477.352 29.3227C480.643 26.1752 482.261 22.0337 482.261 17H481.261ZM476.661 28.6L475.97 27.8774C473.108 30.6143 469.498 32 465.061 32V33V34C469.957 34 474.08 32.4525 477.352 29.3227L476.661 28.6ZM527.586 137.8L526.867 138.495L526.879 138.507L526.891 138.519L527.586 137.8ZM521.586 65.4H522.586V64.4H521.586V65.4ZM496.786 65.4H495.786V66.4H496.786V65.4ZM496.786 44.6V43.6H495.786V44.6H496.786ZM521.586 44.6V45.6H522.586V44.6H521.586ZM521.586 13.8V12.8H520.586V13.8H521.586ZM546.786 13.8H547.786V12.8H546.786V13.8ZM546.786 44.6H545.786V45.6H546.786V44.6ZM573.986 44.6H574.986V43.6H573.986V44.6ZM573.986 65.4V66.4H574.986V65.4H573.986ZM546.786 65.4V64.4H545.786V65.4H546.786ZM571.586 123H572.586V122H571.586V123ZM571.586 143.8V144.8H572.586V143.8H571.586ZM543.586 143.8V142.8C537.274 142.8 532.202 140.876 528.281 137.081L527.586 137.8L526.891 138.519C531.236 142.724 536.831 144.8 543.586 144.8V143.8ZM527.586 137.8L528.305 137.105C524.517 133.191 522.586 127.991 522.586 121.4H521.586H520.586C520.586 128.409 522.654 134.142 526.867 138.495L527.586 137.8ZM521.586 121.4H522.586V65.4H521.586H520.586V121.4H521.586ZM521.586 65.4V64.4H496.786V65.4V66.4H521.586V65.4ZM496.786 65.4H497.786V44.6H496.786H495.786V65.4H496.786ZM496.786 44.6V45.6H521.586V44.6V43.6H496.786V44.6ZM521.586 44.6H522.586V13.8H521.586H520.586V44.6H521.586ZM521.586 13.8V14.8H546.786V13.8V12.8H521.586V13.8ZM546.786 13.8H545.786V44.6H546.786H547.786V13.8H546.786ZM546.786 44.6V45.6H573.986V44.6V43.6H546.786V44.6ZM573.986 44.6H572.986V65.4H573.986H574.986V44.6H573.986ZM573.986 65.4V64.4H546.786V65.4V66.4H573.986V65.4ZM546.786 65.4H545.786V117H546.786H547.786V65.4H546.786ZM546.786 117H545.786C545.786 119.138 546.283 120.927 547.455 122.182C548.639 123.451 550.347 124 552.386 124V123V122C550.692 122 549.6 121.55 548.917 120.818C548.222 120.073 547.786 118.862 547.786 117H546.786ZM552.386 123V124H571.586V123V122H552.386V123ZM571.586 123H570.586V143.8H571.586H572.586V123H571.586ZM571.586 143.8V142.8H543.586V143.8V144.8H571.586V143.8ZM596.797 143.8H595.797V144.8H596.797V143.8ZM596.797 44.6V43.6H595.797V44.6H596.797ZM621.997 44.6H622.997V43.6H621.997V44.6ZM621.997 143.8V144.8H622.997V143.8H621.997ZM597.797 28.6L597.106 29.3227L597.113 29.33L597.121 29.3372L597.797 28.6ZM597.797 5.40004L597.121 4.66289L597.113 4.67006L597.106 4.6774L597.797 5.40004ZM596.797 143.8H597.797V44.6H596.797H595.797V143.8H596.797ZM596.797 44.6V45.6H621.997V44.6V43.6H596.797V44.6ZM621.997 44.6H620.997V143.8H621.997H622.997V44.6H621.997ZM621.997 143.8V142.8H596.797V143.8V144.8H621.997V143.8ZM609.397 33V32C605.102 32 601.479 30.6191 598.473 27.8629L597.797 28.6L597.121 29.3372C600.514 32.4477 604.626 34 609.397 34V33ZM597.797 28.6L598.488 27.8774C595.645 25.1582 594.197 21.5664 594.197 17H593.197H592.197C592.197 22.0337 593.815 26.1752 597.106 29.3227L597.797 28.6ZM593.197 17H594.197C594.197 12.4337 595.645 8.84184 598.488 6.12268L597.797 5.40004L597.106 4.6774C593.815 7.82491 592.197 11.9664 592.197 17H593.197ZM597.797 5.40004L598.473 6.1372C601.479 3.38098 605.102 2.00004 609.397 2.00004V1.00004V3.8147e-05C604.626 3.8147e-05 600.514 1.55243 597.121 4.66289L597.797 5.40004ZM609.397 1.00004V2.00004C613.834 2.00004 617.444 3.38582 620.306 6.12268L620.997 5.40004L621.688 4.6774C618.416 1.5476 614.293 3.8147e-05 609.397 3.8147e-05V1.00004ZM620.997 5.40004L620.306 6.12268C623.148 8.84184 624.597 12.4337 624.597 17H625.597H626.597C626.597 11.9664 624.979 7.82491 621.688 4.6774L620.997 5.40004ZM625.597 17H624.597C624.597 21.5664 623.148 25.1582 620.306 27.8774L620.997 28.6L621.688 29.3227C624.979 26.1752 626.597 22.0337 626.597 17H625.597ZM620.997 28.6L620.306 27.8774C617.444 30.6143 613.834 32 609.397 32V33V34C614.293 34 618.416 32.4525 621.688 29.3227L620.997 28.6ZM666.322 143.8H665.322V144.8H666.322V143.8ZM666.322 65.4H667.322V64.4H666.322V65.4ZM641.122 65.4H640.122V66.4H641.122V65.4ZM641.122 44.6V43.6H640.122V44.6H641.122ZM666.322 44.6V45.6H667.322V44.6H666.322ZM672.322 10L673.029 10.7071L672.322 10ZM714.322 3.80004H715.322V2.80004H714.322V3.80004ZM714.322 24.6V25.6H715.322V24.6H714.322ZM691.522 44.6H690.522V45.6H691.522V44.6ZM717.522 44.6H718.522V43.6H717.522V44.6ZM717.522 65.4V66.4H718.522V65.4H717.522ZM691.522 65.4V64.4H690.522V65.4H691.522ZM691.522 143.8V144.8H692.522V143.8H691.522ZM666.322 143.8H667.322V65.4H666.322H665.322V143.8H666.322ZM666.322 65.4V64.4H641.122V65.4V66.4H666.322V65.4ZM641.122 65.4H642.122V44.6H641.122H640.122V65.4H641.122ZM641.122 44.6V45.6H666.322V44.6V43.6H641.122V44.6ZM666.322 44.6H667.322V26.2001H666.322H665.322V44.6H666.322ZM666.322 26.2001H667.322C667.322 19.6079 669.253 14.4826 673.029 10.7071L672.322 10L671.615 9.29293C667.39 13.5175 665.322 19.1922 665.322 26.2001H666.322ZM672.322 10L673.029 10.7071C676.952 6.78418 682.02 4.80004 688.322 4.80004V3.80004V2.80004C681.557 2.80004 675.958 4.94923 671.615 9.29293L672.322 10ZM688.322 3.80004V4.80004H714.322V3.80004V2.80004H688.322V3.80004ZM714.322 3.80004H713.322V24.6H714.322H715.322V3.80004H714.322ZM714.322 24.6V23.6H697.122V24.6V25.6H714.322V24.6ZM697.122 24.6V23.6C695.083 23.6 693.375 24.1495 692.191 25.4177C691.019 26.673 690.522 28.4624 690.522 30.6H691.522H692.522C692.522 28.7377 692.958 27.5271 693.653 26.7824C694.336 26.0506 695.428 25.6 697.122 25.6V24.6ZM691.522 30.6H690.522V44.6H691.522H692.522V30.6H691.522ZM691.522 44.6V45.6H717.522V44.6V43.6H691.522V44.6ZM717.522 44.6H716.522V65.4H717.522H718.522V44.6H717.522ZM717.522 65.4V64.4H691.522V65.4V66.4H717.522V65.4ZM691.522 65.4H690.522V143.8H691.522H692.522V65.4H691.522ZM691.522 143.8V142.8H666.322V143.8V144.8H691.522V143.8ZM747.831 183.8H746.831V184.8H747.831V183.8ZM747.831 161.8V160.8H746.831V161.8H747.831ZM807.431 130.8H808.431V129.8H807.431V130.8ZM803.831 130.8V129.8H803.197L802.926 130.374L803.831 130.8ZM798.831 137.6L798.124 136.893L798.831 137.6ZM789.631 143.2L789.277 142.265L789.631 143.2ZM754.431 140.2L753.899 141.047L753.911 141.054L753.923 141.061L754.431 140.2ZM736.231 44.6V43.6H735.231V44.6H736.231ZM761.431 44.6H762.431V43.6H761.431V44.6ZM766.831 118.6L766.111 119.294L766.118 119.301L766.124 119.307L766.831 118.6ZM800.631 116.6L801.396 117.244L801.404 117.234L800.631 116.6ZM807.031 44.6V43.6H806.031V44.6H807.031ZM832.231 44.6H833.231V43.6H832.231V44.6ZM826.231 177.6L825.524 176.893L825.518 176.899L825.513 176.905L826.231 177.6ZM747.831 183.8H748.831V161.8H747.831H746.831V183.8H747.831ZM747.831 161.8V162.8H801.831V161.8V160.8H747.831V161.8ZM801.831 161.8V162.8C803.87 162.8 805.579 162.251 806.762 160.982C807.934 159.727 808.431 157.938 808.431 155.8H807.431H806.431C806.431 157.662 805.995 158.873 805.3 159.618C804.617 160.35 803.525 160.8 801.831 160.8V161.8ZM807.431 155.8H808.431V130.8H807.431H806.431V155.8H807.431ZM807.431 130.8V129.8H803.831V130.8V131.8H807.431V130.8ZM803.831 130.8L802.926 130.374C801.921 132.512 800.331 134.686 798.124 136.893L798.831 137.6L799.538 138.307C801.865 135.981 803.609 133.622 804.736 131.226L803.831 130.8ZM798.831 137.6L798.124 136.893C795.982 139.035 793.048 140.835 789.277 142.265L789.631 143.2L789.986 144.135C793.948 142.632 797.147 140.698 799.538 138.307L798.831 137.6ZM789.631 143.2L789.277 142.265C785.562 143.674 780.76 144.4 774.831 144.4V145.4V146.4C780.903 146.4 785.967 145.659 789.986 144.135L789.631 143.2ZM774.831 145.4V144.4C767.252 144.4 760.633 142.703 754.94 139.339L754.431 140.2L753.923 141.061C759.963 144.63 766.944 146.4 774.831 146.4V145.4ZM754.431 140.2L754.963 139.353C749.389 135.853 745.043 131.058 741.922 124.945L741.031 125.4L740.141 125.855C743.419 132.276 748.007 137.347 753.899 141.047L754.431 140.2ZM741.031 125.4L741.922 124.945C738.804 118.84 737.231 111.8 737.231 103.8H736.231H735.231C735.231 112.067 736.858 119.427 740.141 125.855L741.031 125.4ZM736.231 103.8H737.231V44.6H736.231H735.231V103.8H736.231ZM736.231 44.6V45.6H761.431V44.6V43.6H736.231V44.6ZM761.431 44.6H760.431V101.8H761.431H762.431V44.6H761.431ZM761.431 101.8H760.431C760.431 109.412 762.266 115.306 766.111 119.294L766.831 118.6L767.551 117.906C764.197 114.427 762.431 109.121 762.431 101.8H761.431ZM766.831 118.6L766.124 119.307C770.095 123.278 775.646 125.2 782.631 125.2V124.2V123.2C776.017 123.2 771.034 121.389 767.538 117.893L766.831 118.6ZM782.631 124.2V125.2C790.605 125.2 796.907 122.575 801.396 117.244L800.631 116.6L799.866 115.956C795.822 120.758 790.125 123.2 782.631 123.2V124.2ZM800.631 116.6L801.404 117.234C805.864 111.8 808.031 104.347 808.031 95H807.031H806.031C806.031 104.053 803.932 111.001 799.858 115.966L800.631 116.6ZM807.031 95H808.031V44.6H807.031H806.031V95H807.031ZM807.031 44.6V45.6H832.231V44.6V43.6H807.031V44.6ZM832.231 44.6H831.231V161.4H832.231H833.231V44.6H832.231ZM832.231 161.4H831.231C831.231 167.992 829.3 173.117 825.524 176.893L826.231 177.6L826.938 178.307C831.163 174.083 833.231 168.408 833.231 161.4H832.231ZM826.231 177.6L825.513 176.905C821.731 180.812 816.674 182.8 810.231 182.8V183.8V184.8C817.122 184.8 822.731 182.655 826.95 178.295L826.231 177.6ZM810.231 183.8V182.8H747.831V183.8V184.8H810.231V183.8Z" fill="black" fill-opacity="0.16" mask="url(#path-1-outside-1_3_98)"/>
</svg>
